<svg xmlns="http://www.w3.org/2000/svg" viewBox="0 0 64 64" role="img" aria-labelledby="title">
  <title>Knight</title>
  <g fill="currentColor" stroke="currentColor" stroke-width="3.2" stroke-linecap="round" stroke-linejoin="round">
    <path d="M19 53.5h31"/>
    <path d="M22 46.5h25"/>
    <path d="M27.5 46.5c.2-7.2 2.5-12.1 7-16.5l-8.8 1.8c-2.6.5-4.8-.4-6.6-2.6l-3.8-4.8 4.5-2.8 5.2 2.8 2.4-8.7c.8-2.9 3.4-4.9 6.4-4.9h7.8l-2.2 7.4 6.4 6.5c4.3 4.4 5.8 10 4.4 16.6l-1.1 5.2z"/>
    <path d="M37 18.2l-5.2 4.9"/>
    <path d="M32 13.2l-2.5 5.1"/>
    <circle cx="39.5" cy="24.5" r="1.7" fill="#12171A" stroke="none"/>
  </g>
</svg>
